<svg width="221" height="189" viewBox="0 0 221 189" fill="none" xmlns="http://www.w3.org/2000/svg">
<g filter="url(#filter0_d)">
<rect x="15" y="15" width="191" height="159" rx="8" fill="white"/>
</g>
<circle cx="70" cy="47" r="6" fill="#E0E5DA"/>
<circle cx="70" cy="63" r="6" fill="#E0E5DA"/>
<circle cx="70" cy="79" r="6" fill="#E0E5DA"/>
<circle cx="70" cy="95" r="6" fill="#E0E5DA"/>
<circle cx="70" cy="111" r="6" fill="#003F5A"/>
<circle cx="70" cy="127" r="6" fill="#003F5A"/>
<circle cx="70" cy="143" r="6" fill="#003F5A"/>
<circle cx="86" cy="47" r="6" fill="#E0E5DA"/>
<circle cx="86" cy="63" r="6" fill="#E0E5DA"/>
<circle cx="86" cy="79" r="6" fill="#FEA02F"/>
<circle cx="86" cy="95" r="6" fill="#FEA02F"/>
<circle cx="86" cy="111" r="6" fill="#FEA02F"/>
<circle cx="86" cy="127" r="6" fill="#FEA02F"/>
<circle cx="86" cy="143" r="6" fill="#FEA02F"/>
<circle cx="102" cy="47" r="6" fill="#E0E5DA"/>
<circle cx="102" cy="63" r="6" fill="#E0E5DA"/>
<circle cx="102" cy="79" r="6" fill="#E0E5DA"/>
<circle cx="102" cy="95" r="6" fill="#E0E5DA"/>
<circle cx="102" cy="111" r="6" fill="#E0E5DA"/>
<circle cx="102" cy="127" r="6" fill="#007A7A"/>
<circle cx="102" cy="143" r="6" fill="#007A7A"/>
<circle cx="118" cy="47" r="6" fill="#E0E5DA"/>
<circle cx="118" cy="63" r="6" fill="#6DB8BB"/>
<circle cx="118" cy="79" r="6" fill="#6DB8BB"/>
<circle cx="118" cy="95" r="6" fill="#6DB8BB"/>
<circle cx="118" cy="111" r="6" fill="#6DB8BB"/>
<circle cx="118" cy="127" r="6" fill="#6DB8BB"/>
<circle cx="118" cy="143" r="6" fill="#6DB8BB"/>
<circle cx="134" cy="47" r="6" fill="#E0E5DA"/>
<circle cx="134" cy="63" r="6" fill="#E0E5DA"/>
<circle cx="134" cy="79" r="6" fill="#E0E5DA"/>
<circle cx="134" cy="95" r="6" fill="#DE6600"/>
<circle cx="134" cy="111" r="6" fill="#DE6600"/>
<circle cx="134" cy="127" r="6" fill="#DE6600"/>
<circle cx="134" cy="143" r="6" fill="#DE6600"/>
<circle cx="150" cy="47" r="6" fill="#E0E5DA"/>
<circle cx="150" cy="63" r="6" fill="#E0E5DA"/>
<circle cx="150" cy="79" r="6" fill="#E0E5DA"/>
<circle cx="150" cy="95" r="6" fill="#E0E5DA"/>
<circle cx="150" cy="111" r="6" fill="#E0E5DA"/>
<circle cx="150" cy="127" r="6" fill="#EBD9C8"/>
<circle cx="150" cy="143" r="6" fill="#EBD9C8"/>
<defs>
<filter id="filter0_d" x="3.05176e-05" y="0" width="221" height="189" filterUnits="userSpaceOnUse" color-interpolation-filters="sRGB">
<feFlood flood-opacity="0" result="BackgroundImageFix"/>
<feColorMatrix in="SourceAlpha" type="matrix" values="0 0 0 0 0 0 0 0 0 0 0 0 0 0 0 0 0 0 127 0" result="hardAlpha"/>
<feOffset/>
<feGaussianBlur stdDeviation="7.5"/>
<feColorMatrix type="matrix" values="0 0 0 0 0 0 0 0 0 0 0 0 0 0 0 0 0 0 0.25 0"/>
<feBlend mode="normal" in2="BackgroundImageFix" result="effect1_dropShadow"/>
<feBlend mode="normal" in="SourceGraphic" in2="effect1_dropShadow" result="shape"/>
</filter>
</defs>
</svg>
