<svg width="221" height="185" viewBox="0 0 221 185" fill="none" xmlns="http://www.w3.org/2000/svg">
<g filter="url(#filter0_d)">
<rect x="15" y="15" width="191" height="155" rx="8" fill="white"/>
</g>
<rect x="66" y="53.9937" width="1" height="77.9874" fill="#10375E"/>
<rect x="72" y="53.9937" width="93" height="5.84906" fill="#05647A"/>
<rect x="72" y="63.7422" width="62" height="5.84906" fill="#FEA02F"/>
<rect x="72" y="85.1887" width="64" height="5.84906" fill="#05647A"/>
<rect x="72" y="94.9371" width="89" height="5.84906" fill="#FEA02F"/>
<rect x="72" y="116.384" width="93" height="5.84906" fill="#05647A"/>
<rect x="72" y="126.132" width="69" height="5.84906" fill="#FEA02F"/>
<path d="M148.348 126.957V127.365L146.65 131.157H146.014L147.676 127.479H145.756V128.229H145.18V126.957H148.348ZM150.473 131.205C150.141 131.205 149.845 131.121 149.585 130.953C149.329 130.781 149.127 130.533 148.979 130.209C148.831 129.885 148.757 129.501 148.757 129.057C148.757 128.613 148.831 128.229 148.979 127.905C149.127 127.581 149.329 127.335 149.585 127.167C149.845 126.995 150.141 126.909 150.473 126.909C150.801 126.909 151.093 126.995 151.349 127.167C151.609 127.335 151.813 127.581 151.961 127.905C152.109 128.229 152.183 128.613 152.183 129.057C152.183 129.501 152.109 129.885 151.961 130.209C151.813 130.533 151.609 130.781 151.349 130.953C151.093 131.121 150.801 131.205 150.473 131.205ZM150.473 130.671C150.809 130.671 151.077 130.533 151.277 130.257C151.481 129.981 151.583 129.581 151.583 129.057C151.583 128.533 151.481 128.133 151.277 127.857C151.077 127.581 150.809 127.443 150.473 127.443C150.133 127.443 149.861 127.581 149.657 127.857C149.457 128.133 149.357 128.533 149.357 129.057C149.357 129.581 149.457 129.981 149.657 130.257C149.861 130.533 150.133 130.671 150.473 130.671ZM153.671 129.213C153.379 129.213 153.143 129.107 152.963 128.895C152.783 128.683 152.693 128.407 152.693 128.067C152.693 127.727 152.783 127.451 152.963 127.239C153.143 127.027 153.379 126.921 153.671 126.921C153.963 126.921 154.197 127.027 154.373 127.239C154.553 127.447 154.643 127.723 154.643 128.067C154.643 128.411 154.553 128.689 154.373 128.901C154.197 129.109 153.963 129.213 153.671 129.213ZM156.203 126.957H156.665L153.797 131.157H153.335L156.203 126.957ZM153.671 128.871C153.855 128.871 153.999 128.801 154.103 128.661C154.207 128.517 154.259 128.319 154.259 128.067C154.259 127.815 154.207 127.619 154.103 127.479C153.999 127.335 153.855 127.263 153.671 127.263C153.491 127.263 153.347 127.335 153.239 127.479C153.135 127.623 153.083 127.819 153.083 128.067C153.083 128.315 153.135 128.511 153.239 128.655C153.347 128.799 153.491 128.871 153.671 128.871ZM156.329 131.193C156.037 131.193 155.801 131.089 155.621 130.881C155.445 130.669 155.357 130.391 155.357 130.047C155.357 129.703 155.445 129.427 155.621 129.219C155.801 129.007 156.037 128.901 156.329 128.901C156.621 128.901 156.857 129.007 157.037 129.219C157.217 129.431 157.307 129.707 157.307 130.047C157.307 130.387 157.217 130.663 157.037 130.875C156.857 131.087 156.621 131.193 156.329 131.193ZM156.329 130.851C156.509 130.851 156.651 130.779 156.755 130.635C156.863 130.491 156.917 130.295 156.917 130.047C156.917 129.799 156.863 129.603 156.755 129.459C156.651 129.315 156.509 129.243 156.329 129.243C156.145 129.243 156.001 129.315 155.897 129.459C155.793 129.599 155.741 129.795 155.741 130.047C155.741 130.299 155.793 130.497 155.897 130.641C156.001 130.781 156.145 130.851 156.329 130.851Z" fill="#FEA02F"/>
<path d="M30.384 124.258H28.152L27.69 125.308H27.072L28.974 121.108H29.568L31.476 125.308H30.846L30.384 124.258ZM30.174 123.778L29.268 121.72L28.362 123.778H30.174ZM33.7909 122.098C34.0989 122.098 34.3749 122.166 34.6189 122.302C34.8629 122.438 35.0529 122.628 35.1889 122.872C35.3289 123.116 35.3989 123.398 35.3989 123.718C35.3989 124.038 35.3289 124.322 35.1889 124.57C35.0529 124.814 34.8629 125.004 34.6189 125.14C34.3749 125.276 34.0989 125.344 33.7909 125.344C33.5629 125.344 33.3529 125.3 33.1609 125.212C32.9729 125.124 32.8129 124.996 32.6809 124.828V126.472H32.1049V122.128H32.6569V122.632C32.7849 122.456 32.9469 122.324 33.1429 122.236C33.3389 122.144 33.5549 122.098 33.7909 122.098ZM33.7429 124.84C33.9469 124.84 34.1289 124.794 34.2889 124.702C34.4529 124.606 34.5809 124.474 34.6729 124.306C34.7689 124.134 34.8169 123.938 34.8169 123.718C34.8169 123.498 34.7689 123.304 34.6729 123.136C34.5809 122.964 34.4529 122.832 34.2889 122.74C34.1289 122.648 33.9469 122.602 33.7429 122.602C33.5429 122.602 33.3609 122.65 33.1969 122.746C33.0369 122.838 32.9089 122.968 32.8129 123.136C32.7209 123.304 32.6749 123.498 32.6749 123.718C32.6749 123.938 32.7209 124.134 32.8129 124.306C32.9049 124.474 33.0329 124.606 33.1969 124.702C33.3609 124.794 33.5429 124.84 33.7429 124.84ZM37.6218 125.344C37.2978 125.344 37.0078 125.274 36.7518 125.134C36.4998 124.994 36.3018 124.802 36.1578 124.558C36.0138 124.31 35.9418 124.03 35.9418 123.718C35.9418 123.406 36.0138 123.128 36.1578 122.884C36.3018 122.636 36.4998 122.444 36.7518 122.308C37.0078 122.168 37.2978 122.098 37.6218 122.098C37.9098 122.098 38.1658 122.156 38.3898 122.272C38.6178 122.388 38.7938 122.556 38.9178 122.776L38.4798 123.058C38.3798 122.906 38.2558 122.792 38.1078 122.716C37.9598 122.64 37.7958 122.602 37.6158 122.602C37.4078 122.602 37.2198 122.648 37.0518 122.74C36.8878 122.832 36.7578 122.964 36.6618 123.136C36.5698 123.304 36.5238 123.498 36.5238 123.718C36.5238 123.942 36.5698 124.14 36.6618 124.312C36.7578 124.48 36.8878 124.61 37.0518 124.702C37.2198 124.794 37.4078 124.84 37.6158 124.84C37.7958 124.84 37.9598 124.802 38.1078 124.726C38.2558 124.65 38.3798 124.536 38.4798 124.384L38.9178 124.66C38.7938 124.88 38.6178 125.05 38.3898 125.17C38.1658 125.286 37.9098 125.344 37.6218 125.344ZM42.4906 123.736C42.4906 123.78 42.4866 123.838 42.4786 123.91H39.8986C39.9346 124.19 40.0566 124.416 40.2646 124.588C40.4766 124.756 40.7386 124.84 41.0506 124.84C41.4306 124.84 41.7366 124.712 41.9686 124.456L42.2866 124.828C42.1426 124.996 41.9626 125.124 41.7466 125.212C41.5346 125.3 41.2966 125.344 41.0326 125.344C40.6966 125.344 40.3986 125.276 40.1386 125.14C39.8786 125 39.6766 124.806 39.5326 124.558C39.3926 124.31 39.3226 124.03 39.3226 123.718C39.3226 123.41 39.3906 123.132 39.5266 122.884C39.6666 122.636 39.8566 122.444 40.0966 122.308C40.3406 122.168 40.6146 122.098 40.9186 122.098C41.2226 122.098 41.4926 122.168 41.7286 122.308C41.9686 122.444 42.1546 122.636 42.2866 122.884C42.4226 123.132 42.4906 123.416 42.4906 123.736ZM40.9186 122.584C40.6426 122.584 40.4106 122.668 40.2226 122.836C40.0386 123.004 39.9306 123.224 39.8986 123.496H41.9386C41.9066 123.228 41.7966 123.01 41.6086 122.842C41.4246 122.67 41.1946 122.584 40.9186 122.584ZM43.3842 122.128H43.9602V123.478H45.7722V122.128H46.3482V125.308H45.7722V123.976H43.9602V125.308H43.3842V122.128ZM48.6022 122.098C49.0422 122.098 49.3782 122.206 49.6102 122.422C49.8462 122.638 49.9642 122.96 49.9642 123.388V125.308H49.4182V124.888C49.3222 125.036 49.1842 125.15 49.0042 125.23C48.8282 125.306 48.6182 125.344 48.3742 125.344C48.0182 125.344 47.7322 125.258 47.5162 125.086C47.3042 124.914 47.1982 124.688 47.1982 124.408C47.1982 124.128 47.3002 123.904 47.5042 123.736C47.7082 123.564 48.0322 123.478 48.4762 123.478H49.3882V123.364C49.3882 123.116 49.3162 122.926 49.1722 122.794C49.0282 122.662 48.8162 122.596 48.5362 122.596C48.3482 122.596 48.1642 122.628 47.9842 122.692C47.8042 122.752 47.6522 122.834 47.5282 122.938L47.2882 122.506C47.4522 122.374 47.6482 122.274 47.8762 122.206C48.1042 122.134 48.3462 122.098 48.6022 122.098ZM48.4702 124.9C48.6902 124.9 48.8802 124.852 49.0402 124.756C49.2002 124.656 49.3162 124.516 49.3882 124.336V123.892H48.5002C48.0122 123.892 47.7682 124.056 47.7682 124.384C47.7682 124.544 47.8302 124.67 47.9542 124.762C48.0782 124.854 48.2502 124.9 48.4702 124.9ZM53.7314 122.128V125.308H53.1554V122.632H51.7874L51.7514 123.34C51.7314 123.768 51.6934 124.126 51.6374 124.414C51.5814 124.698 51.4894 124.926 51.3614 125.098C51.2334 125.27 51.0554 125.356 50.8274 125.356C50.7234 125.356 50.6054 125.338 50.4734 125.302L50.5094 124.816C50.5614 124.828 50.6094 124.834 50.6534 124.834C50.8134 124.834 50.9334 124.764 51.0134 124.624C51.0934 124.484 51.1454 124.318 51.1694 124.126C51.1934 123.934 51.2154 123.66 51.2354 123.304L51.2894 122.128H53.7314Z" fill="#10375E"/>
<path d="M30.762 89.9132V94.1132H30.168V92.4512C29.724 92.6232 29.314 92.7092 28.938 92.7092C28.426 92.7092 28.028 92.5852 27.744 92.3372C27.464 92.0892 27.324 91.7352 27.324 91.2752V89.9132H27.912V91.2092C27.912 91.5212 28.006 91.7612 28.194 91.9292C28.386 92.0972 28.656 92.1812 29.004 92.1812C29.392 92.1812 29.78 92.0932 30.168 91.9172V89.9132H30.762ZM34.85 92.5412C34.85 92.5852 34.846 92.6432 34.838 92.7152H32.258C32.294 92.9952 32.416 93.2212 32.624 93.3932C32.836 93.5612 33.098 93.6452 33.41 93.6452C33.79 93.6452 34.096 93.5172 34.328 93.2612L34.646 93.6332C34.502 93.8012 34.322 93.9292 34.106 94.0172C33.894 94.1052 33.656 94.1492 33.392 94.1492C33.056 94.1492 32.758 94.0812 32.498 93.9452C32.238 93.8052 32.036 93.6112 31.892 93.3632C31.752 93.1152 31.682 92.8352 31.682 92.5232C31.682 92.2152 31.75 91.9372 31.886 91.6892C32.026 91.4412 32.216 91.2492 32.456 91.1132C32.7 90.9732 32.974 90.9032 33.278 90.9032C33.582 90.9032 33.852 90.9732 34.088 91.1132C34.328 91.2492 34.514 91.4412 34.646 91.6892C34.782 91.9372 34.85 92.2212 34.85 92.5412ZM33.278 91.3892C33.002 91.3892 32.77 91.4732 32.582 91.6412C32.398 91.8092 32.29 92.0292 32.258 92.3012H34.298C34.266 92.0332 34.156 91.8152 33.968 91.6472C33.784 91.4752 33.554 91.3892 33.278 91.3892ZM38.4208 90.9332V94.1132H37.8448V91.4372H36.4768L36.4408 92.1452C36.4208 92.5732 36.3828 92.9312 36.3268 93.2192C36.2708 93.5032 36.1788 93.7312 36.0508 93.9032C35.9228 94.0752 35.7448 94.1612 35.5168 94.1612C35.4128 94.1612 35.2948 94.1432 35.1628 94.1072L35.1988 93.6212C35.2508 93.6332 35.2988 93.6392 35.3428 93.6392C35.5028 93.6392 35.6228 93.5692 35.7028 93.4292C35.7828 93.2892 35.8348 93.1232 35.8588 92.9312C35.8828 92.7392 35.9048 92.4652 35.9248 92.1092L35.9788 90.9332H38.4208ZM40.9206 94.1492C40.5966 94.1492 40.3066 94.0792 40.0506 93.9392C39.7986 93.7992 39.6006 93.6072 39.4566 93.3632C39.3126 93.1152 39.2406 92.8352 39.2406 92.5232C39.2406 92.2112 39.3126 91.9332 39.4566 91.6892C39.6006 91.4412 39.7986 91.2492 40.0506 91.1132C40.3066 90.9732 40.5966 90.9032 40.9206 90.9032C41.2086 90.9032 41.4646 90.9612 41.6886 91.0772C41.9166 91.1932 42.0926 91.3612 42.2166 91.5812L41.7786 91.8632C41.6786 91.7112 41.5546 91.5972 41.4066 91.5212C41.2586 91.4452 41.0946 91.4072 40.9146 91.4072C40.7066 91.4072 40.5186 91.4532 40.3506 91.5452C40.1866 91.6372 40.0566 91.7692 39.9606 91.9412C39.8686 92.1092 39.8226 92.3032 39.8226 92.5232C39.8226 92.7472 39.8686 92.9452 39.9606 93.1172C40.0566 93.2852 40.1866 93.4152 40.3506 93.5072C40.5186 93.5992 40.7066 93.6452 40.9146 93.6452C41.0946 93.6452 41.2586 93.6072 41.4066 93.5312C41.5546 93.4552 41.6786 93.3412 41.7786 93.1892L42.2166 93.4652C42.0926 93.6852 41.9166 93.8552 41.6886 93.9752C41.4646 94.0912 41.2086 94.1492 40.9206 94.1492ZM42.9623 90.9332H43.5383V93.2492L45.4883 90.9332H46.0103V94.1132H45.4343V91.7972L43.4903 94.1132H42.9623V90.9332Z" fill="#10375E"/>
<path d="M31.086 58.7182V62.9182H30.498V59.2402H28.638L28.596 60.4702C28.576 61.0502 28.528 61.5202 28.452 61.8802C28.38 62.2402 28.264 62.5122 28.104 62.6962C27.944 62.8762 27.728 62.9662 27.456 62.9662C27.332 62.9662 27.206 62.9502 27.078 62.9182L27.12 62.3842C27.184 62.4002 27.248 62.4082 27.312 62.4082C27.484 62.4082 27.622 62.3402 27.726 62.2042C27.83 62.0642 27.908 61.8562 27.96 61.5802C28.012 61.3042 28.046 60.9402 28.062 60.4882L28.128 58.7182H31.086ZM32.2983 59.7382H32.8743V62.0542L34.8243 59.7382H35.3463V62.9182H34.7703V60.6022L32.8263 62.9182H32.2983V59.7382ZM38.6303 61.2682C39.0423 61.3722 39.2483 61.6302 39.2483 62.0422C39.2483 62.3222 39.1423 62.5382 38.9303 62.6902C38.7223 62.8422 38.4103 62.9182 37.9943 62.9182H36.4643V59.7382H37.9403C38.3163 59.7382 38.6103 59.8102 38.8223 59.9542C39.0343 60.0942 39.1403 60.2942 39.1403 60.5542C39.1403 60.7222 39.0943 60.8682 39.0023 60.9922C38.9143 61.1122 38.7903 61.2042 38.6303 61.2682ZM37.0283 61.1062H37.8923C38.1123 61.1062 38.2783 61.0662 38.3903 60.9862C38.5063 60.9062 38.5643 60.7902 38.5643 60.6382C38.5643 60.3342 38.3403 60.1822 37.8923 60.1822H37.0283V61.1062ZM37.9523 62.4742C38.1923 62.4742 38.3723 62.4362 38.4923 62.3602C38.6123 62.2842 38.6723 62.1662 38.6723 62.0062C38.6723 61.8422 38.6163 61.7202 38.5043 61.6402C38.3963 61.5602 38.2243 61.5202 37.9883 61.5202H37.0283V62.4742H37.9523ZM43.0238 61.3462C43.0238 61.3902 43.0198 61.4482 43.0118 61.5202H40.4318C40.4678 61.8002 40.5898 62.0262 40.7978 62.1982C41.0098 62.3662 41.2718 62.4502 41.5838 62.4502C41.9638 62.4502 42.2698 62.3222 42.5018 62.0662L42.8198 62.4382C42.6758 62.6062 42.4958 62.7342 42.2798 62.8222C42.0678 62.9102 41.8298 62.9542 41.5658 62.9542C41.2298 62.9542 40.9318 62.8862 40.6718 62.7502C40.4118 62.6102 40.2098 62.4162 40.0658 62.1682C39.9258 61.9202 39.8558 61.6402 39.8558 61.3282C39.8558 61.0202 39.9238 60.7422 40.0598 60.4942C40.1998 60.2462 40.3898 60.0542 40.6298 59.9182C40.8738 59.7782 41.1478 59.7082 41.4518 59.7082C41.7558 59.7082 42.0258 59.7782 42.2618 59.9182C42.5018 60.0542 42.6878 60.2462 42.8198 60.4942C42.9558 60.7422 43.0238 61.0262 43.0238 61.3462ZM41.4518 60.1942C41.1758 60.1942 40.9438 60.2782 40.7558 60.4462C40.5718 60.6142 40.4638 60.8342 40.4318 61.1062H42.4718C42.4398 60.8382 42.3298 60.6202 42.1418 60.4522C41.9578 60.2802 41.7278 60.1942 41.4518 60.1942ZM45.6034 59.7082C45.9114 59.7082 46.1874 59.7762 46.4314 59.9122C46.6754 60.0482 46.8654 60.2382 47.0014 60.4822C47.1414 60.7262 47.2114 61.0082 47.2114 61.3282C47.2114 61.6482 47.1414 61.9322 47.0014 62.1802C46.8654 62.4242 46.6754 62.6142 46.4314 62.7502C46.1874 62.8862 45.9114 62.9542 45.6034 62.9542C45.3754 62.9542 45.1654 62.9102 44.9734 62.8222C44.7854 62.7342 44.6254 62.6062 44.4934 62.4382V64.0822H43.9174V59.7382H44.4694V60.2422C44.5974 60.0662 44.7594 59.9342 44.9554 59.8462C45.1514 59.7542 45.3674 59.7082 45.6034 59.7082ZM45.5554 62.4502C45.7594 62.4502 45.9414 62.4042 46.1014 62.3122C46.2654 62.2162 46.3934 62.0842 46.4854 61.9162C46.5814 61.7442 46.6294 61.5482 46.6294 61.3282C46.6294 61.1082 46.5814 60.9142 46.4854 60.7462C46.3934 60.5742 46.2654 60.4422 46.1014 60.3502C45.9414 60.2582 45.7594 60.2122 45.5554 60.2122C45.3554 60.2122 45.1734 60.2602 45.0094 60.3562C44.8494 60.4482 44.7214 60.5782 44.6254 60.7462C44.5334 60.9142 44.4874 61.1082 44.4874 61.3282C44.4874 61.5482 44.5334 61.7442 44.6254 61.9162C44.7174 62.0842 44.8454 62.2162 45.0094 62.3122C45.1734 62.4042 45.3554 62.4502 45.5554 62.4502ZM50.9943 59.7382V62.9182H50.4183V60.2422H48.6243V62.9182H48.0483V59.7382H50.9943ZM54.9468 59.7382L53.4048 63.2362C53.2688 63.5602 53.1088 63.7882 52.9248 63.9202C52.7448 64.0522 52.5268 64.1182 52.2708 64.1182C52.1148 64.1182 51.9628 64.0922 51.8148 64.0402C51.6708 63.9922 51.5508 63.9202 51.4548 63.8242L51.7008 63.3922C51.8648 63.5482 52.0548 63.6262 52.2708 63.6262C52.4108 63.6262 52.5268 63.5882 52.6188 63.5122C52.7148 63.4402 52.8008 63.3142 52.8768 63.1342L52.9788 62.9122L51.5748 59.7382H52.1748L53.2848 62.2822L54.3828 59.7382H54.9468ZM58.0966 59.7382V62.9182H57.5206V60.2422H56.1526L56.1166 60.9502C56.0966 61.3782 56.0586 61.7362 56.0026 62.0242C55.9466 62.3082 55.8546 62.5362 55.7266 62.7082C55.5986 62.8802 55.4206 62.9662 55.1926 62.9662C55.0886 62.9662 54.9706 62.9482 54.8386 62.9122L54.8746 62.4262C54.9266 62.4382 54.9746 62.4442 55.0186 62.4442C55.1786 62.4442 55.2986 62.3742 55.3786 62.2342C55.4586 62.0942 55.5106 61.9282 55.5346 61.7362C55.5586 61.5442 55.5806 61.2702 55.6006 60.9142L55.6546 59.7382H58.0966ZM60.6804 60.8182C61.0844 60.8222 61.3924 60.9142 61.6044 61.0942C61.8164 61.2742 61.9224 61.5282 61.9224 61.8562C61.9224 62.2002 61.8064 62.4662 61.5744 62.6542C61.3464 62.8382 61.0184 62.9282 60.5904 62.9242L59.2104 62.9182V59.7382H59.7864V60.8122L60.6804 60.8182ZM60.5424 62.4862C60.8024 62.4902 60.9984 62.4382 61.1304 62.3302C61.2664 62.2222 61.3344 62.0622 61.3344 61.8502C61.3344 61.6422 61.2684 61.4902 61.1364 61.3942C61.0084 61.2982 60.8104 61.2482 60.5424 61.2442L59.7864 61.2322V62.4802L60.5424 62.4862Z" fill="#10375E"/>
<path d="M170.65 117.161C171.214 117.161 171.648 117.343 171.952 117.707C172.26 118.071 172.414 118.587 172.414 119.255C172.414 119.723 172.33 120.123 172.162 120.455C171.998 120.783 171.766 121.033 171.466 121.205C171.17 121.373 170.824 121.457 170.428 121.457C170.224 121.457 170.032 121.437 169.852 121.397C169.672 121.353 169.516 121.291 169.384 121.211L169.612 120.743C169.816 120.875 170.086 120.941 170.422 120.941C170.858 120.941 171.198 120.807 171.442 120.539C171.69 120.267 171.814 119.873 171.814 119.357V119.207C171.694 119.387 171.528 119.525 171.316 119.621C171.104 119.713 170.866 119.759 170.602 119.759C170.326 119.759 170.078 119.707 169.858 119.603C169.642 119.499 169.472 119.351 169.348 119.159C169.228 118.963 169.168 118.739 169.168 118.487C169.168 118.223 169.232 117.991 169.36 117.791C169.492 117.591 169.67 117.437 169.894 117.329C170.118 117.217 170.37 117.161 170.65 117.161ZM170.704 119.273C170.892 119.273 171.06 119.237 171.208 119.165C171.356 119.093 171.47 118.995 171.55 118.871C171.634 118.747 171.676 118.609 171.676 118.457C171.676 118.309 171.636 118.175 171.556 118.055C171.48 117.931 171.366 117.833 171.214 117.761C171.066 117.685 170.886 117.647 170.674 117.647C170.398 117.647 170.174 117.721 170.002 117.869C169.834 118.017 169.75 118.215 169.75 118.463C169.75 118.711 169.836 118.909 170.008 119.057C170.18 119.201 170.412 119.273 170.704 119.273ZM174.707 121.457C174.375 121.457 174.079 121.373 173.819 121.205C173.563 121.033 173.361 120.785 173.213 120.461C173.065 120.137 172.991 119.753 172.991 119.309C172.991 118.865 173.065 118.481 173.213 118.157C173.361 117.833 173.563 117.587 173.819 117.419C174.079 117.247 174.375 117.161 174.707 117.161C175.035 117.161 175.327 117.247 175.583 117.419C175.843 117.587 176.047 117.833 176.195 118.157C176.343 118.481 176.417 118.865 176.417 119.309C176.417 119.753 176.343 120.137 176.195 120.461C176.047 120.785 175.843 121.033 175.583 121.205C175.327 121.373 175.035 121.457 174.707 121.457ZM174.707 120.923C175.043 120.923 175.311 120.785 175.511 120.509C175.715 120.233 175.817 119.833 175.817 119.309C175.817 118.785 175.715 118.385 175.511 118.109C175.311 117.833 175.043 117.695 174.707 117.695C174.367 117.695 174.095 117.833 173.891 118.109C173.691 118.385 173.591 118.785 173.591 119.309C173.591 119.833 173.691 120.233 173.891 120.509C174.095 120.785 174.367 120.923 174.707 120.923ZM177.905 119.465C177.613 119.465 177.377 119.359 177.197 119.147C177.017 118.935 176.927 118.659 176.927 118.319C176.927 117.979 177.017 117.703 177.197 117.491C177.377 117.279 177.613 117.173 177.905 117.173C178.197 117.173 178.431 117.279 178.607 117.491C178.787 117.699 178.877 117.975 178.877 118.319C178.877 118.663 178.787 118.941 178.607 119.153C178.431 119.361 178.197 119.465 177.905 119.465ZM180.437 117.209H180.899L178.031 121.409H177.569L180.437 117.209ZM177.905 119.123C178.089 119.123 178.233 119.053 178.337 118.913C178.441 118.769 178.493 118.571 178.493 118.319C178.493 118.067 178.441 117.871 178.337 117.731C178.233 117.587 178.089 117.515 177.905 117.515C177.725 117.515 177.581 117.587 177.473 117.731C177.369 117.875 177.317 118.071 177.317 118.319C177.317 118.567 177.369 118.763 177.473 118.907C177.581 119.051 177.725 119.123 177.905 119.123ZM180.563 121.445C180.271 121.445 180.035 121.341 179.855 121.133C179.679 120.921 179.591 120.643 179.591 120.299C179.591 119.955 179.679 119.679 179.855 119.471C180.035 119.259 180.271 119.153 180.563 119.153C180.855 119.153 181.091 119.259 181.271 119.471C181.451 119.683 181.541 119.959 181.541 120.299C181.541 120.639 181.451 120.915 181.271 121.127C181.091 121.339 180.855 121.445 180.563 121.445ZM180.563 121.103C180.743 121.103 180.885 121.031 180.989 120.887C181.097 120.743 181.151 120.547 181.151 120.299C181.151 120.051 181.097 119.855 180.989 119.711C180.885 119.567 180.743 119.495 180.563 119.495C180.379 119.495 180.235 119.567 180.131 119.711C180.027 119.851 179.975 120.047 179.975 120.299C179.975 120.551 180.027 120.749 180.131 120.893C180.235 121.033 180.379 121.103 180.563 121.103Z" fill="#10375E"/>
<path d="M167.856 97.7603C168.096 97.8523 168.28 97.9843 168.408 98.1563C168.536 98.3283 168.6 98.5343 168.6 98.7743C168.6 99.0263 168.532 99.2463 168.396 99.4343C168.26 99.6183 168.066 99.7603 167.814 99.8603C167.562 99.9603 167.266 100.01 166.926 100.01C166.59 100.01 166.296 99.9603 166.044 99.8603C165.796 99.7603 165.604 99.6183 165.468 99.4343C165.332 99.2463 165.264 99.0263 165.264 98.7743C165.264 98.5343 165.326 98.3283 165.45 98.1563C165.578 97.9843 165.762 97.8523 166.002 97.7603C165.81 97.6683 165.664 97.5463 165.564 97.3943C165.464 97.2423 165.414 97.0623 165.414 96.8543C165.414 96.6223 165.476 96.4203 165.6 96.2483C165.728 96.0763 165.906 95.9443 166.134 95.8523C166.362 95.7603 166.626 95.7143 166.926 95.7143C167.23 95.7143 167.496 95.7603 167.724 95.8523C167.956 95.9443 168.134 96.0763 168.258 96.2483C168.386 96.4203 168.45 96.6223 168.45 96.8543C168.45 97.0583 168.398 97.2383 168.294 97.3943C168.194 97.5463 168.048 97.6683 167.856 97.7603ZM166.926 96.2003C166.642 96.2003 166.418 96.2623 166.254 96.3863C166.09 96.5063 166.008 96.6703 166.008 96.8783C166.008 97.0863 166.088 97.2503 166.248 97.3703C166.412 97.4903 166.638 97.5503 166.926 97.5503C167.218 97.5503 167.446 97.4903 167.61 97.3703C167.778 97.2503 167.862 97.0863 167.862 96.8783C167.862 96.6703 167.776 96.5063 167.604 96.3863C167.436 96.2623 167.21 96.2003 166.926 96.2003ZM166.926 99.5243C167.258 99.5243 167.52 99.4563 167.712 99.3203C167.904 99.1803 168 98.9923 168 98.7563C168 98.5243 167.904 98.3423 167.712 98.2103C167.52 98.0743 167.258 98.0063 166.926 98.0063C166.594 98.0063 166.334 98.0743 166.146 98.2103C165.958 98.3423 165.864 98.5243 165.864 98.7563C165.864 98.9923 165.958 99.1803 166.146 99.3203C166.334 99.4563 166.594 99.5243 166.926 99.5243ZM171.717 97.7603C171.957 97.8523 172.141 97.9843 172.269 98.1563C172.397 98.3283 172.461 98.5343 172.461 98.7743C172.461 99.0263 172.393 99.2463 172.257 99.4343C172.121 99.6183 171.927 99.7603 171.675 99.8603C171.423 99.9603 171.127 100.01 170.787 100.01C170.451 100.01 170.157 99.9603 169.905 99.8603C169.657 99.7603 169.465 99.6183 169.329 99.4343C169.193 99.2463 169.125 99.0263 169.125 98.7743C169.125 98.5343 169.187 98.3283 169.311 98.1563C169.439 97.9843 169.623 97.8523 169.863 97.7603C169.671 97.6683 169.525 97.5463 169.425 97.3943C169.325 97.2423 169.275 97.0623 169.275 96.8543C169.275 96.6223 169.337 96.4203 169.461 96.2483C169.589 96.0763 169.767 95.9443 169.995 95.8523C170.223 95.7603 170.487 95.7143 170.787 95.7143C171.091 95.7143 171.357 95.7603 171.585 95.8523C171.817 95.9443 171.995 96.0763 172.119 96.2483C172.247 96.4203 172.311 96.6223 172.311 96.8543C172.311 97.0583 172.259 97.2383 172.155 97.3943C172.055 97.5463 171.909 97.6683 171.717 97.7603ZM170.787 96.2003C170.503 96.2003 170.279 96.2623 170.115 96.3863C169.951 96.5063 169.869 96.6703 169.869 96.8783C169.869 97.0863 169.949 97.2503 170.109 97.3703C170.273 97.4903 170.499 97.5503 170.787 97.5503C171.079 97.5503 171.307 97.4903 171.471 97.3703C171.639 97.2503 171.723 97.0863 171.723 96.8783C171.723 96.6703 171.637 96.5063 171.465 96.3863C171.297 96.2623 171.071 96.2003 170.787 96.2003ZM170.787 99.5243C171.119 99.5243 171.381 99.4563 171.573 99.3203C171.765 99.1803 171.861 98.9923 171.861 98.7563C171.861 98.5243 171.765 98.3423 171.573 98.2103C171.381 98.0743 171.119 98.0063 170.787 98.0063C170.455 98.0063 170.195 98.0743 170.007 98.2103C169.819 98.3423 169.725 98.5243 169.725 98.7563C169.725 98.9923 169.819 99.1803 170.007 99.3203C170.195 99.4563 170.455 99.5243 170.787 99.5243ZM173.864 98.0183C173.572 98.0183 173.336 97.9123 173.156 97.7003C172.976 97.4883 172.886 97.2123 172.886 96.8723C172.886 96.5323 172.976 96.2563 173.156 96.0443C173.336 95.8323 173.572 95.7263 173.864 95.7263C174.156 95.7263 174.39 95.8323 174.566 96.0443C174.746 96.2523 174.836 96.5283 174.836 96.8723C174.836 97.2163 174.746 97.4943 174.566 97.7063C174.39 97.9143 174.156 98.0183 173.864 98.0183ZM176.396 95.7623H176.858L173.99 99.9623H173.528L176.396 95.7623ZM173.864 97.6763C174.048 97.6763 174.192 97.6063 174.296 97.4663C174.4 97.3223 174.452 97.1243 174.452 96.8723C174.452 96.6203 174.4 96.4243 174.296 96.2843C174.192 96.1403 174.048 96.0683 173.864 96.0683C173.684 96.0683 173.54 96.1403 173.432 96.2843C173.328 96.4283 173.276 96.6243 173.276 96.8723C173.276 97.1203 173.328 97.3163 173.432 97.4603C173.54 97.6043 173.684 97.6763 173.864 97.6763ZM176.522 99.9983C176.23 99.9983 175.994 99.8943 175.814 99.6863C175.638 99.4743 175.55 99.1963 175.55 98.8523C175.55 98.5083 175.638 98.2323 175.814 98.0243C175.994 97.8123 176.23 97.7063 176.522 97.7063C176.814 97.7063 177.05 97.8123 177.23 98.0243C177.41 98.2363 177.5 98.5123 177.5 98.8523C177.5 99.1923 177.41 99.4683 177.23 99.6803C177.05 99.8923 176.814 99.9983 176.522 99.9983ZM176.522 99.6563C176.702 99.6563 176.844 99.5843 176.948 99.4403C177.056 99.2963 177.11 99.1003 177.11 98.8523C177.11 98.6043 177.056 98.4083 176.948 98.2643C176.844 98.1203 176.702 98.0483 176.522 98.0483C176.338 98.0483 176.194 98.1203 176.09 98.2643C175.986 98.4043 175.934 98.6003 175.934 98.8523C175.934 99.1043 175.986 99.3023 176.09 99.4463C176.194 99.5863 176.338 99.6563 176.522 99.6563Z" fill="#FEA02F"/>
<path d="M141.488 87.6879C142.088 87.6879 142.528 87.8019 142.808 88.0299C143.092 88.2539 143.234 88.5619 143.234 88.9539C143.234 89.2019 143.174 89.4259 143.054 89.6259C142.938 89.8219 142.76 89.9779 142.52 90.0939C142.284 90.2059 141.992 90.2619 141.644 90.2619C141.348 90.2619 141.062 90.2179 140.786 90.1299C140.51 90.0379 140.282 89.9119 140.102 89.7519L140.378 89.2779C140.522 89.4139 140.706 89.5239 140.93 89.6079C141.154 89.6879 141.39 89.7279 141.638 89.7279C141.954 89.7279 142.198 89.6619 142.37 89.5299C142.546 89.3939 142.634 89.2099 142.634 88.9779C142.634 88.7259 142.538 88.5359 142.346 88.4079C142.154 88.2759 141.826 88.2099 141.362 88.2099H140.408L140.63 86.0139H143V86.5359H141.134L141.02 87.6879H141.488ZM145.545 87.6639C145.821 87.6639 146.067 87.7159 146.283 87.8199C146.503 87.9239 146.675 88.0739 146.799 88.2699C146.923 88.4619 146.985 88.6839 146.985 88.9359C146.985 89.1999 146.919 89.4319 146.787 89.6319C146.659 89.8319 146.481 89.9879 146.253 90.0999C146.029 90.2079 145.777 90.2619 145.497 90.2619C144.933 90.2619 144.497 90.0799 144.189 89.7159C143.885 89.3519 143.733 88.8359 143.733 88.1679C143.733 87.6999 143.815 87.3019 143.979 86.9739C144.147 86.6419 144.379 86.3919 144.675 86.2239C144.975 86.0519 145.323 85.9659 145.719 85.9659C145.923 85.9659 146.115 85.9879 146.295 86.0319C146.475 86.0719 146.631 86.1319 146.763 86.2119L146.535 86.6799C146.335 86.5479 146.067 86.4819 145.731 86.4819C145.295 86.4819 144.953 86.6179 144.705 86.8899C144.457 87.1579 144.333 87.5499 144.333 88.0659C144.333 88.1299 144.335 88.1799 144.339 88.2159C144.459 88.0359 144.623 87.8999 144.831 87.8079C145.043 87.7119 145.281 87.6639 145.545 87.6639ZM145.473 89.7759C145.749 89.7759 145.973 89.7019 146.145 89.5539C146.317 89.4059 146.403 89.2079 146.403 88.9599C146.403 88.7119 146.315 88.5159 146.139 88.3719C145.967 88.2239 145.735 88.1499 145.443 88.1499C145.255 88.1499 145.087 88.1859 144.939 88.2579C144.795 88.3299 144.681 88.4279 144.597 88.5519C144.517 88.6759 144.477 88.8139 144.477 88.9659C144.477 89.1139 144.515 89.2499 144.591 89.3739C144.671 89.4939 144.785 89.5919 144.933 89.6679C145.085 89.7399 145.265 89.7759 145.473 89.7759ZM148.231 88.2699C147.939 88.2699 147.703 88.1639 147.523 87.9519C147.343 87.7399 147.253 87.4639 147.253 87.1239C147.253 86.7839 147.343 86.5079 147.523 86.2959C147.703 86.0839 147.939 85.9779 148.231 85.9779C148.523 85.9779 148.757 86.0839 148.933 86.2959C149.113 86.5039 149.203 86.7799 149.203 87.1239C149.203 87.4679 149.113 87.7459 148.933 87.9579C148.757 88.1659 148.523 88.2699 148.231 88.2699ZM150.763 86.0139H151.225L148.357 90.2139H147.895L150.763 86.0139ZM148.231 87.9279C148.415 87.9279 148.559 87.8579 148.663 87.7179C148.767 87.5739 148.819 87.3759 148.819 87.1239C148.819 86.8719 148.767 86.6759 148.663 86.5359C148.559 86.3919 148.415 86.3199 148.231 86.3199C148.051 86.3199 147.907 86.3919 147.799 86.5359C147.695 86.6799 147.643 86.8759 147.643 87.1239C147.643 87.3719 147.695 87.5679 147.799 87.7119C147.907 87.8559 148.051 87.9279 148.231 87.9279ZM150.889 90.2499C150.597 90.2499 150.361 90.1459 150.181 89.9379C150.005 89.7259 149.917 89.4479 149.917 89.1039C149.917 88.7599 150.005 88.4839 150.181 88.2759C150.361 88.0639 150.597 87.9579 150.889 87.9579C151.181 87.9579 151.417 88.0639 151.597 88.2759C151.777 88.4879 151.867 88.7639 151.867 89.1039C151.867 89.4439 151.777 89.7199 151.597 89.9319C151.417 90.1439 151.181 90.2499 150.889 90.2499ZM150.889 89.9079C151.069 89.9079 151.211 89.8359 151.315 89.6919C151.423 89.5479 151.477 89.3519 151.477 89.1039C151.477 88.8559 151.423 88.6599 151.315 88.5159C151.211 88.3719 151.069 88.2999 150.889 88.2999C150.705 88.2999 150.561 88.3719 150.457 88.5159C150.353 88.6559 150.301 88.8519 150.301 89.1039C150.301 89.3559 150.353 89.5539 150.457 89.6979C150.561 89.8379 150.705 89.9079 150.889 89.9079Z" fill="#10375E"/>
<path d="M141.488 66.2413C142.088 66.2413 142.528 66.3553 142.808 66.5833C143.092 66.8073 143.234 67.1153 143.234 67.5073C143.234 67.7553 143.174 67.9793 143.054 68.1793C142.938 68.3753 142.76 68.5313 142.52 68.6473C142.284 68.7593 141.992 68.8153 141.644 68.8153C141.348 68.8153 141.062 68.7713 140.786 68.6833C140.51 68.5913 140.282 68.4653 140.102 68.3053L140.378 67.8313C140.522 67.9673 140.706 68.0773 140.93 68.1613C141.154 68.2413 141.39 68.2813 141.638 68.2813C141.954 68.2813 142.198 68.2153 142.37 68.0833C142.546 67.9473 142.634 67.7633 142.634 67.5313C142.634 67.2793 142.538 67.0893 142.346 66.9613C142.154 66.8293 141.826 66.7633 141.362 66.7633H140.408L140.63 64.5673H143V65.0893H141.134L141.02 66.2413H141.488ZM145.449 68.8153C145.117 68.8153 144.821 68.7313 144.561 68.5633C144.305 68.3913 144.103 68.1433 143.955 67.8193C143.807 67.4953 143.733 67.1113 143.733 66.6673C143.733 66.2233 143.807 65.8393 143.955 65.5153C144.103 65.1913 144.305 64.9453 144.561 64.7773C144.821 64.6053 145.117 64.5193 145.449 64.5193C145.777 64.5193 146.069 64.6053 146.325 64.7773C146.585 64.9453 146.789 65.1913 146.937 65.5153C147.085 65.8393 147.159 66.2233 147.159 66.6673C147.159 67.1113 147.085 67.4953 146.937 67.8193C146.789 68.1433 146.585 68.3913 146.325 68.5633C146.069 68.7313 145.777 68.8153 145.449 68.8153ZM145.449 68.2813C145.785 68.2813 146.053 68.1433 146.253 67.8673C146.457 67.5913 146.559 67.1913 146.559 66.6673C146.559 66.1433 146.457 65.7433 146.253 65.4673C146.053 65.1913 145.785 65.0533 145.449 65.0533C145.109 65.0533 144.837 65.1913 144.633 65.4673C144.433 65.7433 144.333 66.1433 144.333 66.6673C144.333 67.1913 144.433 67.5913 144.633 67.8673C144.837 68.1433 145.109 68.2813 145.449 68.2813ZM148.647 66.8233C148.355 66.8233 148.119 66.7173 147.939 66.5053C147.759 66.2933 147.669 66.0173 147.669 65.6773C147.669 65.3373 147.759 65.0613 147.939 64.8493C148.119 64.6373 148.355 64.5313 148.647 64.5313C148.939 64.5313 149.173 64.6373 149.349 64.8493C149.529 65.0573 149.619 65.3333 149.619 65.6773C149.619 66.0213 149.529 66.2993 149.349 66.5113C149.173 66.7193 148.939 66.8233 148.647 66.8233ZM151.179 64.5673H151.641L148.773 68.7673H148.311L151.179 64.5673ZM148.647 66.4813C148.831 66.4813 148.975 66.4113 149.079 66.2713C149.183 66.1273 149.235 65.9293 149.235 65.6773C149.235 65.4253 149.183 65.2293 149.079 65.0893C148.975 64.9453 148.831 64.8733 148.647 64.8733C148.467 64.8733 148.323 64.9453 148.215 65.0893C148.111 65.2333 148.059 65.4293 148.059 65.6773C148.059 65.9253 148.111 66.1213 148.215 66.2653C148.323 66.4093 148.467 66.4813 148.647 66.4813ZM151.305 68.8033C151.013 68.8033 150.777 68.6993 150.597 68.4913C150.421 68.2793 150.333 68.0013 150.333 67.6573C150.333 67.3133 150.421 67.0373 150.597 66.8293C150.777 66.6173 151.013 66.5113 151.305 66.5113C151.597 66.5113 151.833 66.6173 152.013 66.8293C152.193 67.0413 152.283 67.3173 152.283 67.6573C152.283 67.9973 152.193 68.2733 152.013 68.4853C151.833 68.6973 151.597 68.8033 151.305 68.8033ZM151.305 68.4613C151.485 68.4613 151.627 68.3893 151.731 68.2453C151.839 68.1013 151.893 67.9053 151.893 67.6573C151.893 67.4093 151.839 67.2133 151.731 67.0693C151.627 66.9253 151.485 66.8533 151.305 66.8533C151.121 66.8533 150.977 66.9253 150.873 67.0693C150.769 67.2093 150.717 67.4053 150.717 67.6573C150.717 67.9093 150.769 68.1073 150.873 68.2513C150.977 68.3913 151.121 68.4613 151.305 68.4613Z" fill="#FEA02F"/>
<path d="M170.65 54.7709C171.214 54.7709 171.648 54.9529 171.952 55.3169C172.26 55.6809 172.414 56.1969 172.414 56.8649C172.414 57.3329 172.33 57.7329 172.162 58.0649C171.998 58.3929 171.766 58.6429 171.466 58.8149C171.17 58.9829 170.824 59.0669 170.428 59.0669C170.224 59.0669 170.032 59.0469 169.852 59.0069C169.672 58.9629 169.516 58.9009 169.384 58.8209L169.612 58.3529C169.816 58.4849 170.086 58.5509 170.422 58.5509C170.858 58.5509 171.198 58.4169 171.442 58.1489C171.69 57.8769 171.814 57.4829 171.814 56.9669V56.8169C171.694 56.9969 171.528 57.1349 171.316 57.2309C171.104 57.3229 170.866 57.3689 170.602 57.3689C170.326 57.3689 170.078 57.3169 169.858 57.2129C169.642 57.1089 169.472 56.9609 169.348 56.7689C169.228 56.5729 169.168 56.3489 169.168 56.0969C169.168 55.8329 169.232 55.6009 169.36 55.4009C169.492 55.2009 169.67 55.0469 169.894 54.9389C170.118 54.8269 170.37 54.7709 170.65 54.7709ZM170.704 56.8829C170.892 56.8829 171.06 56.8469 171.208 56.7749C171.356 56.7029 171.47 56.6049 171.55 56.4809C171.634 56.3569 171.676 56.2189 171.676 56.0669C171.676 55.9189 171.636 55.7849 171.556 55.6649C171.48 55.5409 171.366 55.4429 171.214 55.3709C171.066 55.2949 170.886 55.2569 170.674 55.2569C170.398 55.2569 170.174 55.3309 170.002 55.4789C169.834 55.6269 169.75 55.8249 169.75 56.0729C169.75 56.3209 169.836 56.5189 170.008 56.6669C170.18 56.8109 170.412 56.8829 170.704 56.8829ZM176.645 57.9869H175.847V59.0189H175.265V57.9869H172.931V57.5669L175.079 54.8189H175.727L173.669 57.4709H175.283V56.5589H175.847V57.4709H176.645V57.9869ZM177.735 57.0749C177.443 57.0749 177.207 56.9689 177.027 56.7569C176.847 56.5449 176.757 56.2689 176.757 55.9289C176.757 55.5889 176.847 55.3129 177.027 55.1009C177.207 54.8889 177.443 54.7829 177.735 54.7829C178.027 54.7829 178.261 54.8889 178.437 55.1009C178.617 55.3089 178.707 55.5849 178.707 55.9289C178.707 56.2729 178.617 56.5509 178.437 56.7629C178.261 56.9709 178.027 57.0749 177.735 57.0749ZM180.267 54.8189H180.729L177.861 59.0189H177.399L180.267 54.8189ZM177.735 56.7329C177.919 56.7329 178.063 56.6629 178.167 56.5229C178.271 56.3789 178.323 56.1809 178.323 55.9289C178.323 55.6769 178.271 55.4809 178.167 55.3409C178.063 55.1969 177.919 55.1249 177.735 55.1249C177.555 55.1249 177.411 55.1969 177.303 55.3409C177.199 55.4849 177.147 55.6809 177.147 55.9289C177.147 56.1769 177.199 56.3729 177.303 56.5169C177.411 56.6609 177.555 56.7329 177.735 56.7329ZM180.393 59.0549C180.101 59.0549 179.865 58.9509 179.685 58.7429C179.509 58.5309 179.421 58.2529 179.421 57.9089C179.421 57.5649 179.509 57.2889 179.685 57.0809C179.865 56.8689 180.101 56.7629 180.393 56.7629C180.685 56.7629 180.921 56.8689 181.101 57.0809C181.281 57.2929 181.371 57.5689 181.371 57.9089C181.371 58.2489 181.281 58.5249 181.101 58.7369C180.921 58.9489 180.685 59.0549 180.393 59.0549ZM180.393 58.7129C180.573 58.7129 180.715 58.6409 180.819 58.4969C180.927 58.3529 180.981 58.1569 180.981 57.9089C180.981 57.6609 180.927 57.4649 180.819 57.3209C180.715 57.1769 180.573 57.1049 180.393 57.1049C180.209 57.1049 180.065 57.1769 179.961 57.3209C179.857 57.4609 179.805 57.6569 179.805 57.9089C179.805 58.1609 179.857 58.3589 179.961 58.5029C180.065 58.6429 180.209 58.7129 180.393 58.7129Z" fill="#10375E"/>
<defs>
<filter id="filter0_d" x="3.05176e-05" y="0" width="221" height="185" filterUnits="userSpaceOnUse" color-interpolation-filters="sRGB">
<feFlood flood-opacity="0" result="BackgroundImageFix"/>
<feColorMatrix in="SourceAlpha" type="matrix" values="0 0 0 0 0 0 0 0 0 0 0 0 0 0 0 0 0 0 127 0" result="hardAlpha"/>
<feOffset/>
<feGaussianBlur stdDeviation="7.5"/>
<feColorMatrix type="matrix" values="0 0 0 0 0 0 0 0 0 0 0 0 0 0 0 0 0 0 0.25 0"/>
<feBlend mode="normal" in2="BackgroundImageFix" result="effect1_dropShadow"/>
<feBlend mode="normal" in="SourceGraphic" in2="effect1_dropShadow" result="shape"/>
</filter>
</defs>
</svg>
