<svg width="378" height="528" viewBox="0 0 378 528" fill="none" xmlns="http://www.w3.org/2000/svg">
<path d="M105.645 483.765C213.424 468.827 198.398 362.019 208.958 353.548C226.36 309.097 262.649 375.816 314.33 298.536C386.924 189.983 258.089 177.507 249.004 86.1227C239.918 -5.262 150.681 29.8995 59.9752 50.3407C-30.7308 70.7818 31.3507 130.969 -38.7412 113.651C-96.3624 99.4134 -189 258.5 -119 366.5C-109.43 410.887 -54.9393 442.74 -54.9393 442.74C-54.9393 442.74 13.7209 496.506 105.645 483.765Z" fill="#6DB8BB"/>
<path d="M105.645 483.765C213.424 468.827 198.398 362.019 208.958 353.548C226.36 309.097 262.649 375.816 314.33 298.536C386.924 189.983 258.089 177.507 249.004 86.1227C239.918 -5.262 150.681 29.8995 59.9752 50.3407C-30.7308 70.7818 31.3507 130.969 -38.7412 113.651C-96.3624 99.4134 -189 258.5 -119 366.5C-109.43 410.887 -54.9393 442.74 -54.9393 442.74C-54.9393 442.74 13.7209 496.506 105.645 483.765Z" fill="url(#paint0_linear)"/>
<defs>
<linearGradient id="paint0_linear" x1="166.368" y1="471.12" x2="74.9455" y2="47.0842" gradientUnits="userSpaceOnUse">
<stop stop-color="#6DB8BB"/>
<stop offset="1" stop-color="#05647A"/>
</linearGradient>
</defs>
</svg>
